<svg width="1200" height="420" viewBox="0 0 1200 420" fill="none" xmlns="http://www.w3.org/2000/svg">
  <defs>
    <linearGradient id="sky" x1="0" y1="0" x2="0" y2="1">
      <stop offset="0%" stop-color="#BFEFFF"/>
      <stop offset="100%" stop-color="#EFFFF7"/>
    </linearGradient>
    <filter id="soft" x="-20%" y="-20%" width="140%" height="140%">
      <feDropShadow dx="0" dy="5" stdDeviation="6" flood-opacity="0.2"/>
    </filter>
  </defs>
  <rect width="1200" height="420" rx="26" fill="url(#sky)"/>
  <ellipse cx="260" cy="390" rx="310" ry="90" fill="#B8E9A7"/>
  <ellipse cx="910" cy="400" rx="380" ry="100" fill="#AEE39B"/>
  <g opacity="0.85" fill="white">
    <circle cx="140" cy="80" r="26"/><circle cx="172" cy="78" r="21"/><circle cx="112" cy="84" r="19"/>
    <circle cx="970" cy="90" r="30"/><circle cx="1010" cy="88" r="24"/><circle cx="930" cy="95" r="20"/>
  </g>
  <g filter="url(#soft)">
    <rect x="330" y="74" width="540" height="120" rx="30" fill="#FFFFFF"/>
    <text x="600" y="147" text-anchor="middle" fill="#FF7F61" font-family="Trebuchet MS, Verdana, sans-serif" font-size="84" font-weight="900">jump</text>
  </g>
  <g transform="translate(300 222)">
    <ellipse cx="0" cy="114" rx="58" ry="18" fill="#000" opacity="0.12"/>
    <ellipse cx="0" cy="76" rx="52" ry="43" fill="#F8F8FF" stroke="#6F708A" stroke-width="4"/>
    <ellipse cx="32" cy="64" rx="23" ry="21" fill="#F8F8FF" stroke="#6F708A" stroke-width="4"/>
    <ellipse cx="-16" cy="20" rx="12" ry="29" fill="#F8F8FF" stroke="#6F708A" stroke-width="4"/>
    <ellipse cx="14" cy="18" rx="12" ry="29" fill="#F8F8FF" stroke="#6F708A" stroke-width="4"/>
    <circle cx="40" cy="58" r="3" fill="#222"/><circle cx="49" cy="67" r="4" fill="#F4A5C4"/>
    <ellipse cx="-26" cy="108" rx="13" ry="8" fill="#F8F8FF" stroke="#6F708A" stroke-width="4"/>
    <ellipse cx="18" cy="108" rx="13" ry="8" fill="#F8F8FF" stroke="#6F708A" stroke-width="4"/>
  </g>
  <g transform="translate(860 210)">
    <ellipse cx="0" cy="126" rx="60" ry="18" fill="#000" opacity="0.12"/>
    <ellipse cx="0" cy="82" rx="54" ry="46" fill="#FFF5FB" stroke="#8F6E7D" stroke-width="4"/>
    <ellipse cx="36" cy="70" rx="24" ry="22" fill="#FFF5FB" stroke="#8F6E7D" stroke-width="4"/>
    <ellipse cx="-18" cy="22" rx="12" ry="30" fill="#FFF5FB" stroke="#8F6E7D" stroke-width="4" transform="rotate(-12 -18 22)"/>
    <ellipse cx="16" cy="20" rx="12" ry="30" fill="#FFF5FB" stroke="#8F6E7D" stroke-width="4" transform="rotate(12 16 20)"/>
    <circle cx="44" cy="64" r="3" fill="#222"/><circle cx="53" cy="73" r="4" fill="#F4A5C4"/>
    <ellipse cx="-28" cy="116" rx="14" ry="8" fill="#FFF5FB" stroke="#8F6E7D" stroke-width="4"/>
    <ellipse cx="20" cy="116" rx="14" ry="8" fill="#FFF5FB" stroke="#8F6E7D" stroke-width="4"/>
  </g>
  <g>
    <rect x="535" y="308" width="130" height="16" rx="8" fill="#79CB63"/>
    <path d="M600 309 L615 270 L585 270 Z" fill="#FFA151"/>
    <ellipse cx="589" cy="268" rx="7" ry="5" fill="#67C45A"/>
    <ellipse cx="611" cy="268" rx="7" ry="5" fill="#67C45A"/>
  </g>
</svg>
